<mxfile host="app.diagrams.net" modified="2024-03-14T08:31:57.200Z" agent="Mozilla/5.0 (X11; Ubuntu; Linux x86_64; rv:123.0) Gecko/20100101 Firefox/123.0" etag="y1Pj4vISZuvCDllR84sc" version="24.0.5" type="github">
  <diagram name="Page-1" id="8OmadO4QbGyc91eLj6qY">
    <mxGraphModel dx="1434" dy="766" grid="1" gridSize="10" guides="1" tooltips="1" connect="1" arrows="1" fold="1" page="1" pageScale="1" pageWidth="827" pageHeight="1169" math="0" shadow="0">
      <root>
        <mxCell id="0" />
        <mxCell id="1" parent="0" />
        <mxCell id="zMMFy-uLqj7YometguDG-3" style="edgeStyle=orthogonalEdgeStyle;rounded=0;orthogonalLoop=1;jettySize=auto;html=1;exitX=1;exitY=0.25;exitDx=0;exitDy=0;entryX=0;entryY=0.25;entryDx=0;entryDy=0;" edge="1" parent="1" source="zMMFy-uLqj7YometguDG-1" target="zMMFy-uLqj7YometguDG-2">
          <mxGeometry relative="1" as="geometry" />
        </mxCell>
        <mxCell id="zMMFy-uLqj7YometguDG-7" value="1. POST /cart" style="edgeLabel;html=1;align=center;verticalAlign=middle;resizable=0;points=[];" vertex="1" connectable="0" parent="zMMFy-uLqj7YometguDG-3">
          <mxGeometry x="0.0267" relative="1" as="geometry">
            <mxPoint as="offset" />
          </mxGeometry>
        </mxCell>
        <mxCell id="zMMFy-uLqj7YometguDG-1" value="web application" style="rounded=0;whiteSpace=wrap;html=1;fillColor=#d5e8d4;strokeColor=#82b366;" vertex="1" parent="1">
          <mxGeometry x="70" y="210" width="130" height="60" as="geometry" />
        </mxCell>
        <mxCell id="zMMFy-uLqj7YometguDG-9" style="edgeStyle=orthogonalEdgeStyle;rounded=0;orthogonalLoop=1;jettySize=auto;html=1;exitX=1;exitY=0.25;exitDx=0;exitDy=0;entryX=0;entryY=0.25;entryDx=0;entryDy=0;" edge="1" parent="1" source="zMMFy-uLqj7YometguDG-2" target="zMMFy-uLqj7YometguDG-8">
          <mxGeometry relative="1" as="geometry" />
        </mxCell>
        <mxCell id="zMMFy-uLqj7YometguDG-10" value="&lt;div&gt;2. verify movie&lt;/div&gt;&lt;div&gt;and inventory, get total price&lt;br&gt;&lt;/div&gt;" style="edgeLabel;html=1;align=center;verticalAlign=middle;resizable=0;points=[];" vertex="1" connectable="0" parent="zMMFy-uLqj7YometguDG-9">
          <mxGeometry x="-0.0182" y="-1" relative="1" as="geometry">
            <mxPoint as="offset" />
          </mxGeometry>
        </mxCell>
        <mxCell id="zMMFy-uLqj7YometguDG-13" style="edgeStyle=orthogonalEdgeStyle;rounded=0;orthogonalLoop=1;jettySize=auto;html=1;exitX=0;exitY=0.75;exitDx=0;exitDy=0;entryX=1;entryY=0.75;entryDx=0;entryDy=0;" edge="1" parent="1" source="zMMFy-uLqj7YometguDG-2" target="zMMFy-uLqj7YometguDG-1">
          <mxGeometry relative="1" as="geometry" />
        </mxCell>
        <mxCell id="zMMFy-uLqj7YometguDG-14" value="4. return cart" style="edgeLabel;html=1;align=center;verticalAlign=middle;resizable=0;points=[];" vertex="1" connectable="0" parent="zMMFy-uLqj7YometguDG-13">
          <mxGeometry x="-0.0133" relative="1" as="geometry">
            <mxPoint as="offset" />
          </mxGeometry>
        </mxCell>
        <mxCell id="zMMFy-uLqj7YometguDG-17" style="edgeStyle=orthogonalEdgeStyle;rounded=0;orthogonalLoop=1;jettySize=auto;html=1;dashed=1;" edge="1" parent="1" source="zMMFy-uLqj7YometguDG-2" target="zMMFy-uLqj7YometguDG-16">
          <mxGeometry relative="1" as="geometry" />
        </mxCell>
        <mxCell id="zMMFy-uLqj7YometguDG-20" style="edgeStyle=orthogonalEdgeStyle;rounded=0;orthogonalLoop=1;jettySize=auto;html=1;dashed=1;" edge="1" parent="1" source="zMMFy-uLqj7YometguDG-2" target="zMMFy-uLqj7YometguDG-19">
          <mxGeometry relative="1" as="geometry" />
        </mxCell>
        <mxCell id="zMMFy-uLqj7YometguDG-2" value="shopping cart and order management" style="rounded=0;whiteSpace=wrap;html=1;fillColor=#d5e8d4;strokeColor=#82b366;" vertex="1" parent="1">
          <mxGeometry x="350" y="210" width="130" height="60" as="geometry" />
        </mxCell>
        <mxCell id="zMMFy-uLqj7YometguDG-11" style="edgeStyle=orthogonalEdgeStyle;rounded=0;orthogonalLoop=1;jettySize=auto;html=1;exitX=0;exitY=0.75;exitDx=0;exitDy=0;entryX=1;entryY=0.75;entryDx=0;entryDy=0;" edge="1" parent="1" source="zMMFy-uLqj7YometguDG-8" target="zMMFy-uLqj7YometguDG-2">
          <mxGeometry relative="1" as="geometry" />
        </mxCell>
        <mxCell id="zMMFy-uLqj7YometguDG-12" value="3 return" style="edgeLabel;html=1;align=center;verticalAlign=middle;resizable=0;points=[];" vertex="1" connectable="0" parent="zMMFy-uLqj7YometguDG-11">
          <mxGeometry x="0.0111" y="2" relative="1" as="geometry">
            <mxPoint as="offset" />
          </mxGeometry>
        </mxCell>
        <mxCell id="zMMFy-uLqj7YometguDG-8" value="catalog and inventory management" style="rounded=0;whiteSpace=wrap;html=1;fillColor=#d5e8d4;strokeColor=#82b366;" vertex="1" parent="1">
          <mxGeometry x="660" y="210" width="130" height="60" as="geometry" />
        </mxCell>
        <mxCell id="zMMFy-uLqj7YometguDG-15" value="reporting" style="rounded=0;whiteSpace=wrap;html=1;fillColor=#d5e8d4;strokeColor=#82b366;" vertex="1" parent="1">
          <mxGeometry x="660" y="70" width="130" height="60" as="geometry" />
        </mxCell>
        <mxCell id="zMMFy-uLqj7YometguDG-18" style="edgeStyle=orthogonalEdgeStyle;rounded=0;orthogonalLoop=1;jettySize=auto;html=1;exitX=0.5;exitY=0;exitDx=0;exitDy=0;exitPerimeter=0;entryX=0;entryY=0.5;entryDx=0;entryDy=0;dashed=1;" edge="1" parent="1" source="zMMFy-uLqj7YometguDG-16" target="zMMFy-uLqj7YometguDG-15">
          <mxGeometry relative="1" as="geometry" />
        </mxCell>
        <mxCell id="zMMFy-uLqj7YometguDG-16" value="Queue" style="shape=cylinder3;whiteSpace=wrap;html=1;boundedLbl=1;backgroundOutline=1;size=15;direction=south;fillColor=#dae8fc;strokeColor=#6c8ebf;" vertex="1" parent="1">
          <mxGeometry x="375" y="70" width="80" height="60" as="geometry" />
        </mxCell>
        <mxCell id="zMMFy-uLqj7YometguDG-19" value="MongoDB" style="dashed=0;outlineConnect=0;html=1;align=center;labelPosition=center;verticalLabelPosition=bottom;verticalAlign=top;shape=mxgraph.webicons.mongodb;gradientColor=#DFDEDE" vertex="1" parent="1">
          <mxGeometry x="384" y="350" width="62.4" height="62.4" as="geometry" />
        </mxCell>
      </root>
    </mxGraphModel>
  </diagram>
</mxfile>
